<?xml version="1.0" encoding="UTF-8" standalone="no"?>
<svg
   xmlns:dc="http://purl.org/dc/elements/1.1/"
   xmlns:cc="http://creativecommons.org/ns#"
   xmlns:rdf="http://www.w3.org/1999/02/22-rdf-syntax-ns#"
   xmlns:svg="http://www.w3.org/2000/svg"
   xmlns="http://www.w3.org/2000/svg"
   xmlns:sodipodi="http://sodipodi.sourceforge.net/DTD/sodipodi-0.dtd"
   xmlns:inkscape="http://www.inkscape.org/namespaces/inkscape"
   width="24"
   height="24"
   viewBox="0 0 24 24"
   version="1.1"
   id="svg4"
   sodipodi:docname="arrow.svg"
   inkscape:version="0.92.1 r15371">
  <metadata
     id="metadata10">
    <rdf:RDF>
      <cc:Work
         rdf:about="">
        <dc:format>image/svg+xml</dc:format>
        <dc:type
           rdf:resource="http://purl.org/dc/dcmitype/StillImage" />
      </cc:Work>
    </rdf:RDF>
  </metadata>
  <defs
     id="defs8" />
  <sodipodi:namedview
     pagecolor="#ffffff"
     bordercolor="#666666"
     borderopacity="1"
     objecttolerance="10"
     gridtolerance="10"
     guidetolerance="10"
     inkscape:pageopacity="0"
     inkscape:pageshadow="2"
     inkscape:window-width="1920"
     inkscape:window-height="1017"
     id="namedview6"
     showgrid="false"
     inkscape:zoom="19.666667"
     inkscape:cx="9.4984422"
     inkscape:cy="10.691599"
     inkscape:window-x="1912"
     inkscape:window-y="-8"
     inkscape:window-maximized="1"
     inkscape:current-layer="svg4" />
  <path
     style="fill:#063c6f;fill-opacity:0.94117647;stroke:none;stroke-width:0.03843587;stroke-miterlimit:4;stroke-dasharray:none;paint-order:fill markers stroke"
     d="m 8.0238659,16.516028 v -1.52966 H 4.0323405 0.04081509 V 12.011791 9.0372151 H 4.0316057 8.0223964 L 8.0358431,7.491245 8.0492897,5.9452749 12.461733,8.9316542 c 2.426843,1.6425088 4.43453,3.0084668 4.461526,3.0354618 0.03154,0.03154 -1.533141,1.120209 -4.379139,3.046879 -2.435522,1.648788 -4.4489288,3.005423 -4.4742376,3.014745 -0.026813,0.0099 -0.046016,-0.621414 -0.046016,-1.512712 z"
     id="path4491"
     inkscape:connector-curvature="0" />
  <path
     style="fill:#e99b35;fill-opacity:1;stroke:none;stroke-width:0.03843587;stroke-miterlimit:4;stroke-dasharray:none;paint-order:fill markers stroke"
     d="m 15.040815,16.831993 v -1.315392 l 2.516949,-1.746471 c 1.384322,-0.960559 2.51565,-1.760582 2.514063,-1.777829 -0.0016,-0.01725 -1.134215,-0.806179 -2.51695,-1.753183 L 15.040815,8.5172916 V 7.2009823 c 0,-0.7239702 0.0096,-1.3163093 0.02125,-1.3163093 0.02885,0 8.73364,5.995708 8.812488,6.069885 0.04829,0.04543 -0.940848,0.75421 -4.33859,3.108886 -2.420625,1.677523 -4.422289,3.057669 -4.448142,3.066991 -0.028,0.0101 -0.047,-0.514889 -0.047,-1.298442 z"
     id="path4495"
     inkscape:connector-curvature="0" />
</svg>
