<?xml version="1.0" encoding="UTF-8" standalone="no"?>
<!-- Created with Inkscape (http://www.inkscape.org/) -->

<svg
   xmlns:dc="http://purl.org/dc/elements/1.1/"
   xmlns:cc="http://creativecommons.org/ns#"
   xmlns:rdf="http://www.w3.org/1999/02/22-rdf-syntax-ns#"
   xmlns:svg="http://www.w3.org/2000/svg"
   xmlns="http://www.w3.org/2000/svg"
   xmlns:sodipodi="http://sodipodi.sourceforge.net/DTD/sodipodi-0.dtd"
   xmlns:inkscape="http://www.inkscape.org/namespaces/inkscape"
   width="256"
   height="256"
   version="1.1"
   viewBox="0 0 12 16"
   id="svg6"
   sodipodi:docname="logo.svg"
   inkscape:version="0.92.1 r15371"
   inkscape:export-filename="C:\Users\f.bardel\Desktop\DeepL Translator\icons\logo-48.png"
   inkscape:export-xdpi="18"
   inkscape:export-ydpi="18">
  <defs
     id="defs10" />
  <sodipodi:namedview
     pagecolor="#ffffff"
     bordercolor="#666666"
     borderopacity="1"
     objecttolerance="10"
     gridtolerance="10"
     guidetolerance="10"
     inkscape:pageopacity="0"
     inkscape:pageshadow="2"
     inkscape:window-width="1920"
     inkscape:window-height="1017"
     id="namedview8"
     showgrid="false"
     inkscape:zoom="1.84375"
     inkscape:cx="-36.338983"
     inkscape:cy="126.27158"
     inkscape:window-x="1912"
     inkscape:window-y="-8"
     inkscape:window-maximized="1"
     inkscape:current-layer="svg6" />
  <metadata
     id="metadata2">
    <rdf:RDF>
      <cc:Work
         rdf:about="">
        <dc:format>image/svg+xml</dc:format>
        <dc:type
           rdf:resource="http://purl.org/dc/dcmitype/StillImage" />
        <dc:title />
      </cc:Work>
    </rdf:RDF>
  </metadata>
  <path
     d="m 12,1 v 12 c 0,0.55 -0.45,1 -1,1 H 6 v 2 L 4.5,14.5 3,16 V 14 H 1 C 0.45,14 0,13.55 0,13 V 1 C 0,0.45 0.45,0 1,0 h 10 c 0.55,0 1,0.45 1,1 z M 11,11 H 1 v 2 h 2 v -1 h 3 v 1 h 5 z M 11,1 H 2 v 9 h 9 z"
     id="path4"
     inkscape:connector-curvature="0"
     style="fill-rule:evenodd"
     sodipodi:nodetypes="ssscccccsssssscccccccccccccc" />
  <g
     id="g4486"
     transform="matrix(1.1735389,0,0,1.1347841,-1.0646881,-0.81596275)">
    <path
       style="stroke-width:0.16881742"
       inkscape:connector-curvature="0"
       d="M 7.7942026,3.5457434 V 2.5328389 L 9.6511942,4.3898305 7.7942026,6.246822 V 5.2339175 H 5.5995763 V 3.5457434 Z"
       id="path4495" />
    <path
       style="stroke-width:0.16881742"
       inkscape:connector-curvature="0"
       d="M 5.0621144,5.8677774 V 4.8548729 L 3.2051232,6.7118645 5.0621144,8.568856 V 7.5559515 H 7.2567407 V 5.8677774 Z"
       id="path4495-5" />
  </g>
</svg>
